<?xml version="1.0" encoding="utf-8"?>
<svg width="17" height="17" viewBox="0 0 17 17" fill="none" xmlns="http://www.w3.org/2000/svg">
    <path d="M10.9578 14.6084H12.7089C13.1733 14.6084 13.6187 14.4239 13.9471 14.0955C14.2755 13.7671 14.46 13.3217 14.46 12.8573V11.1062" stroke="black" stroke-width="1.00189" stroke-linecap="round" stroke-linejoin="round" />
    <path d="M14.46 6.10644V4.35534C14.46 3.89092 14.2755 3.44553 13.9471 3.11713C13.6187 2.78874 13.1733 2.60425 12.7089 2.60425H10.9578" stroke="black" stroke-width="1.00189" stroke-linecap="round" stroke-linejoin="round" />
    <path d="M5.95898 14.6084H4.20788C3.74346 14.6084 3.29806 14.4239 2.96967 14.0955C2.64128 13.7671 2.45679 13.3217 2.45679 12.8573V11.1062" stroke="black" stroke-width="1.00189" stroke-linecap="round" stroke-linejoin="round" />
    <path d="M2.45679 6.10644V4.35534C2.45679 3.89092 2.64128 3.44553 2.96967 3.11713C3.29806 2.78874 3.74346 2.60425 4.20788 2.60425H5.95898" stroke="black" stroke-width="1.00189" stroke-linecap="round" stroke-linejoin="round" />
</svg>