<?xml version="1.0" encoding="utf-8"?>
<svg width="17" height="17" viewBox="0 0 17 17" fill="none" xmlns="http://www.w3.org/2000/svg">
                                    <path d="M8.2041 1.91858C5.71919 1.91858 3.70312 3.83743 3.70312 6.20076C3.70312 8.9201 6.70378 13.2295 7.80558 14.7179C7.85132 14.7808 7.91126 14.8319 7.98052 14.8671C8.04978 14.9024 8.12639 14.9208 8.2041 14.9208C8.28182 14.9208 8.35843 14.9024 8.42769 14.8671C8.49695 14.8319 8.55689 14.7808 8.60263 14.7179C9.70443 13.2301 12.7051 8.92229 12.7051 6.20076C12.7051 3.83743 10.689 1.91858 8.2041 1.91858Z" stroke="rgb(35,188,236)" stroke-width="1.00189" stroke-linecap="round" stroke-linejoin="round" />
                                    <path d="M8.20553 7.92217C9.03475 7.92217 9.70696 7.24996 9.70696 6.42074C9.70696 5.59152 9.03475 4.91931 8.20553 4.91931C7.37631 4.91931 6.7041 5.59152 6.7041 6.42074C6.7041 7.24996 7.37631 7.92217 8.20553 7.92217Z" stroke="rgb(35,188,236)" stroke-width="1.00189" stroke-linecap="round" stroke-linejoin="round" />
                                </svg>