<?xml version="1.0" encoding="utf-8"?>
<svg width="17" height="17" viewBox="0 0 17 17" fill="none" xmlns="http://www.w3.org/2000/svg">
                                    <path d="M8.26252 14.6497C11.8532 14.6497 14.7639 11.7389 14.7639 8.14827C14.7639 4.55763 11.8532 1.64685 8.26252 1.64685C4.67189 1.64685 1.76111 4.55763 1.76111 8.14827C1.76111 11.7389 4.67189 14.6497 8.26252 14.6497Z" stroke="rgb(35,188,236)" stroke-width="1.00189" stroke-linecap="round" stroke-linejoin="round" />
                                    <path d="M8.26323 10.65C9.64444 10.65 10.7641 9.53031 10.7641 8.1491C10.7641 6.76789 9.64444 5.64819 8.26323 5.64819C6.88202 5.64819 5.76233 6.76789 5.76233 8.1491C5.76233 9.53031 6.88202 10.65 8.26323 10.65Z" stroke="rgb(35,188,236)" stroke-width="1.00189" stroke-linecap="round" stroke-linejoin="round" />
                                    <path d="M6.76257 1.83459L7.01266 5.96108" stroke="rgb(35,188,236)" stroke-width="1.00189" stroke-linecap="round" stroke-linejoin="round" />
                                    <path d="M9.5127 5.96108L9.76279 1.83459" stroke="rgb(35,188,236)" stroke-width="1.00189" stroke-linecap="round" stroke-linejoin="round" />
                                    <path d="M6.76257 14.4633L7.01266 10.3368" stroke="rgb(35,188,236)" stroke-width="1.00189" stroke-linecap="round" stroke-linejoin="round" />
                                    <path d="M9.5127 10.3368L9.76279 14.4633" stroke="rgb(35,188,236)" stroke-width="1.00189" stroke-linecap="round" stroke-linejoin="round" />
                                    <path d="M14.5773 6.64819L10.4508 6.89828" stroke="rgb(35,188,236)" stroke-width="1.00189" stroke-linecap="round" stroke-linejoin="round" />
                                    <path d="M10.4508 9.39917L14.5773 9.64926" stroke="rgb(35,188,236)" stroke-width="1.00189" stroke-linecap="round" stroke-linejoin="round" />
                                    <path d="M1.94885 6.64819L6.07534 6.89828" stroke="rgb(35,188,236)" stroke-width="1.00189" stroke-linecap="round" stroke-linejoin="round" />
                                    <path d="M6.07534 9.39917L1.94885 9.64926" stroke="rgb(35,188,236)" stroke-width="1.00189" stroke-linecap="round" stroke-linejoin="round" />
                                </svg>
