<?xml version="1.0" encoding="utf-8"?>
<svg width="17" height="17" viewBox="0 0 17 17" fill="none" xmlns="http://www.w3.org/2000/svg">
                                    <g clip-path="url(#clip0_5_848)">
                                        <path d="M6.99805 5.81199C6.84492 5.06047 6.6608 4.04998 6.6608 3.5189C6.65943 3.30596 6.70036 3.09487 6.78121 2.89787C6.86207 2.70087 6.98124 2.52189 7.13182 2.37132C7.28239 2.22074 7.46137 2.10157 7.65837 2.02071C7.85536 1.93986 8.06646 1.89893 8.2794 1.9003V1.9003C9.1734 1.9003 9.898 2.64212 9.898 3.5189C9.898 4.03557 9.71481 5.0517 9.56075 5.81199" stroke="rgb(35,188,236)" stroke-width="1.00189" stroke-miterlimit="10" stroke-linecap="round" />
                                        <path d="M6.99805 12.0153C6.8443 12.7687 6.6608 13.7738 6.6608 14.3084C6.65943 14.5213 6.70036 14.7324 6.78121 14.9294C6.86207 15.1264 6.98124 15.3054 7.13182 15.4559C7.28239 15.6065 7.46137 15.7257 7.65837 15.8065C7.85536 15.8874 8.06646 15.9283 8.2794 15.927V15.927C9.1734 15.927 9.898 15.1851 9.898 14.3084C9.898 13.7904 9.71481 12.7762 9.56075 12.0153" stroke="rgb(35,188,236)" stroke-width="1.00189" stroke-miterlimit="10" stroke-linecap="round" />
                                        <path d="M11.3809 7.63208C12.1343 7.47833 13.1394 7.29483 13.674 7.29483C13.8869 7.29346 14.098 7.33439 14.295 7.41525C14.492 7.4961 14.671 7.61527 14.8215 7.76585C14.9721 7.91642 15.0913 8.0954 15.1721 8.2924C15.253 8.4894 15.2939 8.70049 15.2926 8.91343V8.91343C15.2926 9.80743 14.5507 10.532 13.674 10.532C13.1573 10.532 12.1412 10.3488 11.3809 10.1948" stroke="rgb(35,188,236)" stroke-width="1.00189" stroke-miterlimit="10" stroke-linecap="round" />
                                        <path d="M5.17735 7.63177C4.42582 7.47864 3.41596 7.29483 2.88426 7.29483C2.67132 7.29346 2.46022 7.33439 2.26323 7.41525C2.06623 7.4961 1.88725 7.61527 1.73667 7.76585C1.5861 7.91642 1.46693 8.0954 1.38607 8.2924C1.30521 8.4894 1.26429 8.70049 1.26566 8.91343V8.91343C1.26566 9.80743 2.00748 10.532 2.88426 10.532C3.40093 10.532 4.41706 10.3488 5.17735 10.1948" stroke="rgb(35,188,236)" stroke-width="1.00189" stroke-miterlimit="10" stroke-linecap="round" />
                                        <path d="M9.56018 5.81169C9.98448 5.17038 10.5716 4.33212 10.9496 3.95448C11.0991 3.8029 11.2773 3.68255 11.4738 3.6004C11.6703 3.51825 11.8811 3.47595 12.0941 3.47595C12.307 3.47595 12.5179 3.51825 12.7143 3.6004C12.9108 3.68255 13.089 3.8029 13.2386 3.95448V3.95448C13.8708 4.5867 13.8586 5.62349 13.2386 6.2435C12.8735 6.60893 12.0277 7.20389 11.3814 7.63288" stroke="rgb(35,188,236)" stroke-width="1.00189" stroke-miterlimit="10" stroke-linecap="round" />
                                        <path d="M5.17704 10.1948C4.53574 10.6191 3.69748 11.2062 3.31983 11.5841C3.16826 11.7337 3.0479 11.9119 2.96576 12.1084C2.88361 12.3049 2.84131 12.5157 2.84131 12.7287C2.84131 12.9416 2.88361 13.1524 2.96576 13.3489C3.0479 13.5454 3.16826 13.7236 3.31983 13.8732C3.95206 14.5054 4.98885 14.4932 5.60886 13.8732C5.97429 13.5081 6.56924 12.6623 6.99824 12.016" stroke="rgb(35,188,236)" stroke-width="1.00189" stroke-miterlimit="10" stroke-linecap="round" />
                                        <path d="M11.3814 10.1948C12.0227 10.6191 12.8609 11.2062 13.2386 11.5841C13.3902 11.7337 13.5105 11.9119 13.5927 12.1084C13.6748 12.3049 13.7171 12.5157 13.7171 12.7287C13.7171 12.9416 13.6748 13.1524 13.5927 13.3489C13.5105 13.5454 13.3902 13.7236 13.2386 13.8732V13.8732C12.6064 14.5054 11.5696 14.4932 10.9496 13.8732C10.5835 13.5071 9.98949 12.6629 9.56018 12.016" stroke="rgb(35,188,236)" stroke-width="1.00189" stroke-miterlimit="10" stroke-linecap="round" />
                                        <path d="M6.99822 5.81169C6.57455 5.17195 5.98429 4.32993 5.60884 3.95448C5.45926 3.8029 5.28106 3.68255 5.08459 3.6004C4.88812 3.51825 4.67728 3.47595 4.46433 3.47595C4.25137 3.47595 4.04054 3.51825 3.84407 3.6004C3.64759 3.68255 3.4694 3.8029 3.31982 3.95448V3.95448C2.6876 4.5867 2.69981 5.62349 3.31982 6.2435C3.68337 6.60705 4.53165 7.2042 5.17703 7.63288" stroke="rgb(35,188,236)" stroke-width="1.00189" stroke-miterlimit="10" stroke-linecap="round" />
                                        <path d="M8.27897 10.918C9.38579 10.918 10.283 10.0208 10.283 8.91398C10.283 7.80716 9.38579 6.90991 8.27897 6.90991C7.17215 6.90991 6.2749 7.80716 6.2749 8.91398C6.2749 10.0208 7.17215 10.918 8.27897 10.918Z" stroke="rgb(35,188,236)" stroke-width="1.00189" stroke-miterlimit="10" stroke-linecap="round" />
                                    </g>
                                    <defs>
                                        <clipPath id="clip0_5_848">
                                            <rect width="16.0303" height="16.0303" fill="white" transform="translate(0.263672 0.89856)" />
                                        </clipPath>
                                    </defs>
                                </svg>
