<?xml version="1.0" encoding="utf-8"?>
<svg width="17" height="17" viewBox="0 0 17 17" fill="none" xmlns="http://www.w3.org/2000/svg">
                                    <path d="M12.2709 8.32831H3.26892V5.0776C3.26991 4.74632 3.40195 4.42888 3.63621 4.19462C3.87047 3.96036 4.1879 3.82832 4.51919 3.82733H12.0208C12.3521 3.82832 12.6696 3.96036 12.9038 4.19462C13.1381 4.42888 13.2701 4.74632 13.2711 5.0776V8.32831H12.2709Z" stroke="rgb(35,188,236)" stroke-width="1.00189" stroke-linecap="round" stroke-linejoin="round" />
                                    <path d="M1.76868 13.8293V10.3285C1.77024 9.79843 1.98151 9.29052 2.35632 8.91571C2.73114 8.54089 3.23905 8.32963 3.76911 8.32806H12.7711C13.3011 8.32963 13.809 8.54089 14.1839 8.91571C14.5587 9.29052 14.7699 9.79843 14.7715 10.3285V13.8293" stroke="rgb(35,188,236)" stroke-width="1.00189" stroke-linecap="round" stroke-linejoin="round" />
                                    <path d="M1.76868 13.8294V13.5794C1.76925 13.3806 1.84847 13.1901 1.98903 13.0496C2.12959 12.909 2.32006 12.8298 2.51884 12.8292H14.0213C14.2201 12.8298 14.4106 12.909 14.5512 13.0496C14.6917 13.1901 14.7709 13.3806 14.7715 13.5794V13.8294" stroke="rgb(35,188,236)" stroke-width="1.00189" stroke-linecap="round" stroke-linejoin="round" />
                                    <path d="M3.76904 8.32824V7.82806C3.76979 7.56297 3.87542 7.30896 4.06286 7.12152C4.25031 6.93407 4.50432 6.82844 4.7694 6.8277H7.2703C7.53539 6.82844 7.7894 6.93407 7.97685 7.12152C8.16429 7.30896 8.26992 7.56297 8.27066 7.82806V8.32824" stroke="rgb(35,188,236)" stroke-width="1.00189" stroke-linecap="round" stroke-linejoin="round" />
                                    <path d="M8.2699 8.32824V7.82806C8.27064 7.56297 8.37627 7.30896 8.56372 7.12152C8.75116 6.93407 9.00517 6.82844 9.27026 6.8277H11.7712C12.0362 6.82844 12.2903 6.93407 12.4777 7.12152C12.6651 7.30896 12.7708 7.56297 12.7715 7.82806V8.32824" stroke="rgb(35,188,236)" stroke-width="1.00189" stroke-linecap="round" stroke-linejoin="round" />
                                </svg>
