<?xml version="1.0" encoding="utf-8"?>
<svg width="17" height="17" viewBox="0 0 17 17" fill="none" xmlns="http://www.w3.org/2000/svg">
                                    <g clip-path="url(#clip0_5_917)">
                                        <path d="M10.3241 13.6129C10.3241 14.7178 9.6786 15.6134 8.57367 15.6134H4.44777C3.34284 15.6134 2.69739 14.7178 2.69739 13.6129" stroke="rgb(35,188,236)" stroke-width="1.00189" stroke-miterlimit="10" stroke-linecap="round" />
                                        <path d="M10.7615 11.1122C11.3138 11.1122 11.7617 11.672 11.7617 12.3625C11.7617 13.0529 11.3138 13.6127 10.7615 13.6127H2.25962C1.70731 13.6127 1.2594 13.0529 1.2594 12.3625C1.2594 11.672 1.70731 11.1122 2.25962 11.1122" stroke="rgb(35,188,236)" stroke-width="1.00189" stroke-miterlimit="10" stroke-linecap="round" />
                                        <path d="M11.0115 11.1127H5.86384C5.79761 11.1127 5.7341 11.139 5.68724 11.1858L4.84862 12.0245C4.83701 12.0361 4.82322 12.0453 4.80804 12.0516C4.79286 12.0579 4.77659 12.0611 4.76016 12.0611C4.74373 12.0611 4.72746 12.0579 4.71228 12.0516C4.69711 12.0453 4.68332 12.0361 4.67171 12.0245L3.83309 11.1858C3.78623 11.139 3.72272 11.1127 3.65648 11.1127H2.00956C1.81061 11.1127 1.6198 11.0337 1.47912 10.893C1.33843 10.7523 1.2594 10.5615 1.2594 10.3625V10.3625C1.2594 10.1636 1.33843 9.97277 1.47912 9.83208C1.6198 9.6914 1.81061 9.61237 2.00956 9.61237H11.0115C11.2105 9.61237 11.4013 9.6914 11.542 9.83208C11.6827 9.97277 11.7617 10.1636 11.7617 10.3625C11.7617 10.5615 11.6827 10.7523 11.542 10.893C11.4013 11.0337 11.2105 11.1127 11.0115 11.1127Z" stroke="rgb(35,188,236)" stroke-width="1.00189" stroke-miterlimit="10" stroke-linecap="round" />
                                        <path d="M2.26001 9.23696V9.23009C2.26001 7.51096 3.66657 6.61139 5.38569 6.61139H7.63618C9.35531 6.61139 10.7619 7.51784 10.7619 9.23696V9.23009" stroke="rgb(35,188,236)" stroke-width="1.00189" stroke-miterlimit="10" stroke-linecap="round" />
                                        <path d="M7.79236 4.11096L8.02508 6.11193" stroke="rgb(35,188,236)" stroke-width="1.00189" stroke-miterlimit="10" stroke-linecap="round" />
                                        <path d="M8.26111 15.6135H12.6155C12.8678 15.6135 13.1108 15.5181 13.2958 15.3464C13.4808 15.1748 13.5941 14.9396 13.6129 14.688L14.7313 4.11096" stroke="rgb(35,188,236)" stroke-width="1.00189" stroke-miterlimit="10" stroke-linecap="round" />
                                        <path d="M11.7618 4.11261L12.2623 2.11071L13.7325 1.61023" stroke="rgb(35,188,236)" stroke-width="1.00189" stroke-linecap="round" stroke-linejoin="round" />
                                        <path d="M7.26074 4.11096H15.2625" stroke="rgb(35,188,236)" stroke-width="1.00189" stroke-miterlimit="10" stroke-linecap="round" />
                                    </g>
                                    <defs>
                                        <clipPath id="clip0_5_917">
                                            <rect width="16.0035" height="16.0035" fill="white" transform="translate(0.259766 0.610229)" />
                                        </clipPath>
                                    </defs>
                                </svg>
