<svg width="24" height="19" viewBox="0 0 24 19" fill="none" xmlns="http://www.w3.org/2000/svg" class="mil-quote-icon mil-fade-up mil-active"><path fill-rule="evenodd" clip-rule="evenodd" d="M1.98153 16.5432L1.96873 16.5275C0.970391 15.3023 0.511963 13.7557 0.511963 11.9758C0.511963 9.67596 1.19329 7.53976 2.53323 5.58922C3.85431 3.62895 5.51386 2.14449 7.5121 1.16577L8.40283 0.729492L9.55276 3.02935L8.89401 3.53126C8.21398 4.04938 7.60022 4.72403 7.05823 5.57088C6.67538 6.16909 6.36018 6.89486 6.1236 7.76055L6.33141 7.81003C7.78521 8.1431 8.99251 8.7862 9.86883 9.79182C10.7881 10.7656 11.248 11.9611 11.248 13.3198C11.248 14.7682 10.7384 16.0131 9.69719 16.964C8.71506 17.8953 7.49463 18.3518 6.10396 18.3518C4.4575 18.3518 3.05714 17.7591 1.99497 16.5584L1.98153 16.5432ZM9.01596 16.2318C9.8373 15.4852 10.248 14.5145 10.248 13.3198C10.248 12.1998 9.87463 11.2478 9.12796 10.4638C8.41863 9.6425 7.41063 9.0825 6.10396 8.78383L4.92796 8.50383C5.1893 7.12249 5.61863 5.96516 6.21596 5.03183C6.58142 4.4608 6.98181 3.95267 7.41714 3.50741C7.69184 3.22645 7.98045 2.97052 8.28297 2.73964C8.28463 2.73837 8.2863 2.7371 8.28796 2.73583L7.95196 2.06383C7.90926 2.08474 7.86672 2.10591 7.82435 2.12734C7.81171 2.13373 7.79908 2.14014 7.78647 2.14658C7.54355 2.27054 7.30601 2.40289 7.07384 2.54364C6.97633 2.60276 6.87977 2.66335 6.78416 2.72542C5.4614 3.58418 4.32 4.72632 3.35996 6.15183C2.12796 7.94383 1.51196 9.88516 1.51196 11.9758C1.51196 13.5812 1.92263 14.8878 2.74396 15.8958C3.60263 16.8665 4.72263 17.3518 6.10396 17.3518C7.2613 17.3518 8.23196 16.9785 9.01596 16.2318ZM13.7975 16.5432L13.7847 16.5275C12.7864 15.3023 12.328 13.7557 12.328 11.9758C12.328 9.67597 13.0093 7.53977 14.3492 5.58924C15.6703 3.62895 17.3299 2.1445 19.3281 1.16577L20.2188 0.729492L21.3688 3.02935L20.71 3.53126C20.03 4.04938 19.4162 4.72403 18.8742 5.57088C18.4914 6.16909 18.1762 6.89486 17.9396 7.76055L18.1474 7.81004C19.6012 8.14311 20.8085 8.78622 21.6848 9.79183C22.6041 10.7656 23.064 11.9611 23.064 13.3198C23.064 14.7681 22.5545 16.0131 21.5132 16.9639C20.5311 17.8953 19.3107 18.3518 17.92 18.3518C16.2735 18.3518 14.8731 17.7591 13.811 16.5584L13.7975 16.5432ZM20.832 16.2318C21.6533 15.4852 22.064 14.5145 22.064 13.3198C22.064 12.1998 21.6906 11.2478 20.944 10.4638C20.2346 9.6425 19.2266 9.0825 17.92 8.78383L16.744 8.50383C17.0053 7.12249 17.4346 5.96516 18.032 5.03183C18.3974 4.4608 18.7978 3.95266 19.2331 3.50741C19.5078 3.22645 19.7965 2.97052 20.099 2.73964C20.1006 2.73837 20.1023 2.7371 20.104 2.73583L19.768 2.06383C19.7253 2.08474 19.6827 2.10591 19.6404 2.12734C19.6277 2.13375 19.615 2.14018 19.6024 2.14664C19.3595 2.27058 19.122 2.40292 18.8898 2.54364C18.7923 2.60276 18.6958 2.66335 18.6002 2.72542C17.2774 3.58418 16.136 4.72632 15.176 6.15183C13.944 7.94383 13.328 9.88516 13.328 11.9758C13.328 13.5812 13.7386 14.8878 14.56 15.8958C15.4186 16.8665 16.5386 17.3518 17.92 17.3518C19.0773 17.3518 20.048 16.9785 20.832 16.2318Z" fill="black"></path></svg>