<?xml version="1.0" encoding="utf-8"?>
<svg width="17" height="17" viewBox="0 0 17 17" fill="none" xmlns="http://www.w3.org/2000/svg">
    <g clip-path="url(#clip0_5_594)">
        <path d="M14.5019 6.2075C14.3908 6.1638 14.2725 6.14152 14.1531 6.14185H14.1406C13.51 6.15123 12.8029 6.74175 12.4318 7.63489C11.987 8.7034 12.1917 9.7966 12.8926 10.0776C13.0036 10.1213 13.1219 10.1436 13.2412 10.1433C13.8748 10.1433 14.5917 9.54933 14.9659 8.65025C15.4076 7.58174 15.1997 6.48854 14.5019 6.2075Z" stroke="rgb(35, 188, 236)" stroke-width="1.00189" stroke-miterlimit="10" />
        <path d="M10.4341 10.377C9.56516 8.93513 9.19008 8.39282 8.19611 8.39282C7.20215 8.39282 6.82394 8.93857 5.955 10.377C5.21109 11.6073 3.70764 11.7098 3.33255 12.7547C3.25646 12.9461 3.21825 13.1504 3.22003 13.3564C3.22003 14.2063 3.87017 14.8942 4.67035 14.8942C5.66431 14.8942 7.01773 14.1006 8.19924 14.1006C9.38075 14.1006 10.7279 14.8942 11.7219 14.8942C12.5221 14.8942 13.1691 14.2066 13.1691 13.3564C13.1698 13.1502 13.1305 12.9459 13.0534 12.7547C12.6783 11.706 11.178 11.6073 10.4341 10.377Z" stroke="rgb(35, 188, 236)" stroke-width="1.00189" stroke-miterlimit="10" />
        <path d="M6.21244 7.01797C6.25429 7.018 6.2961 7.01487 6.33748 7.00859C7.06306 6.90324 7.51603 5.89788 7.3516 4.76247C7.19685 3.69208 6.54724 2.89148 5.86794 2.89148C5.82608 2.89145 5.78428 2.89458 5.74289 2.90086C5.01732 3.00621 4.56434 4.01157 4.72878 5.14698C4.88352 6.21424 5.53313 7.01797 6.21244 7.01797Z" stroke="rgb(35, 188, 236)" stroke-width="1.00189" stroke-miterlimit="10" />
        <path d="M11.6639 5.1471C11.8283 4.01169 11.3754 3.00633 10.6498 2.90098C10.6084 2.8947 10.5666 2.89157 10.5247 2.8916C9.84542 2.8916 9.19707 3.6922 9.04201 4.76259C8.87758 5.898 9.33055 6.90336 10.0561 7.00871C10.0975 7.01499 10.1393 7.01812 10.1812 7.01809C10.8605 7.01809 11.5101 6.21436 11.6639 5.1471Z" stroke="rgb(35, 188, 236)" stroke-width="1.00189" stroke-miterlimit="10" />
        <path d="M3.50067 10.0778C4.20061 9.79641 4.40505 8.70227 3.96083 7.63501C3.58695 6.73594 2.87075 6.14197 2.23802 6.14197C2.11873 6.14164 2.00046 6.16392 1.88946 6.20762C1.18952 6.48897 0.985072 7.58312 1.42929 8.65037C1.80318 9.54945 2.51938 10.1434 3.1521 10.1434C3.27139 10.1437 3.38967 10.1215 3.50067 10.0778V10.0778Z" stroke="rgb(35, 188, 236)" stroke-width="1.00189" stroke-miterlimit="10" />
    </g>
    <defs>
        <clipPath id="clip0_5_594">
            <rect width="16.0035" height="16.0035" fill="white" transform="translate(0.19458 0.890747)" />
        </clipPath>
    </defs>
</svg>