<?xml version="1.0" encoding="utf-8"?>
<svg width="17" height="17" viewBox="0 0 17 17" fill="none" xmlns="http://www.w3.org/2000/svg">
    <path d="M12.8814 4.7384C11.4314 4.14765 9.9098 3.89197 8.23162 3.89197C6.55344 3.89197 4.91527 4.17328 3.57748 4.7259C3.32493 4.82905 3.1005 5.00721 3.26273 5.33541C3.39432 5.60203 6.57501 12.6126 7.7834 15.1132C7.8241 15.1976 7.88781 15.2689 7.96721 15.3188C8.04661 15.3687 8.13848 15.3951 8.23225 15.3951C8.32601 15.3951 8.41788 15.3687 8.49728 15.3188C8.57668 15.2689 8.64039 15.1976 8.68109 15.1132L13.1836 5.35416C13.2833 5.13849 13.2118 4.87281 12.8814 4.7384Z" stroke="rgb(35, 188, 236)" stroke-width="1.00189" stroke-miterlimit="10" />
    <path d="M13.8699 3.47473C12.2424 2.83084 10.2375 2.39075 8.23179 2.39075C6.22604 2.39075 4.25124 2.79021 2.58931 3.45598C2.44272 3.51599 2.16797 3.65446 2.2433 3.88732L2.54586 4.64124C2.67089 4.89754 2.81686 4.89754 3.01659 4.89754C3.07254 4.89754 3.15068 4.86629 3.24414 4.8294C4.83458 4.21164 6.52559 3.89351 8.23179 3.89107C10.0059 3.89107 11.8235 4.26615 13.2204 4.82878C13.3326 4.87254 13.3951 4.89692 13.4479 4.89692C13.6536 4.89692 13.7724 4.96537 13.9168 4.64374L14.2222 3.89107C14.285 3.70353 14.0662 3.55287 13.8699 3.47473Z" stroke="rgb(35, 188, 236)" stroke-width="1.00189" stroke-miterlimit="10" />
    <path d="M6.23215 7.89436C6.78497 7.89436 7.23311 7.44622 7.23311 6.89341C7.23311 6.3406 6.78497 5.89246 6.23215 5.89246C5.67934 5.89246 5.2312 6.3406 5.2312 6.89341C5.2312 7.44622 5.67934 7.89436 6.23215 7.89436Z" fill="rgb(35, 188, 236)" />
    <path d="M10.2324 8.39388C10.7852 8.39388 11.2334 7.94573 11.2334 7.39292C11.2334 6.84011 10.7852 6.39197 10.2324 6.39197C9.67959 6.39197 9.23145 6.84011 9.23145 7.39292C9.23145 7.94573 9.67959 8.39388 10.2324 8.39388Z" fill="rgb(35, 188, 236)" />
    <path d="M8.23215 11.8942C8.78497 11.8942 9.23311 11.4461 9.23311 10.8933C9.23311 10.3405 8.78497 9.89233 8.23215 9.89233C7.67934 9.89233 7.2312 10.3405 7.2312 10.8933C7.2312 11.4461 7.67934 11.8942 8.23215 11.8942Z" fill="rgb(35, 188, 236)" />
</svg>