<?xml version="1.0" encoding="utf-8"?>
<svg width="17" height="17" viewBox="0 0 17 17" fill="none" xmlns="http://www.w3.org/2000/svg">
                                            <g clip-path="url(#clip0_5_831)">
                                                <path d="M14.924 8.38767C14.3489 5.78773 13.4959 4.12925 12.1287 3.7251C11.8639 3.64786 11.5893 3.60932 11.3135 3.6107C10.473 3.6107 9.80975 4.11081 8.31286 4.11081C6.81597 4.11081 6.15145 3.6107 5.31221 3.6107C5.02488 3.60921 4.73874 3.64771 4.46202 3.7251C3.09297 4.12925 2.24716 5.7893 1.66548 8.38767C1.0716 11.0417 1.17912 13.1387 2.34 13.5413C3.15267 13.8226 3.8794 13.2409 4.56767 12.3848C5.34909 11.4096 6.31149 11.1095 8.31286 11.1095C10.3142 11.1095 11.2391 11.4096 12.0218 12.3848C12.7094 13.2415 13.463 13.816 14.2542 13.5463C15.5363 13.1084 15.5182 11.0729 14.924 8.38767Z" stroke="rgb(35, 188, 236)" stroke-width="1.00189" stroke-miterlimit="10" />
                                                <path d="M9.44065 8.24269C9.78757 8.24269 10.0688 7.96146 10.0688 7.61454C10.0688 7.26762 9.78757 6.98639 9.44065 6.98639C9.09373 6.98639 8.8125 7.26762 8.8125 7.61454C8.8125 7.96146 9.09373 8.24269 9.44065 8.24269Z" fill="rgb(35, 188, 236)" />
                                                <path d="M10.8161 9.61799C10.6918 9.61799 10.5703 9.58111 10.467 9.51202C10.3637 9.44293 10.2831 9.34473 10.2357 9.22986C10.1882 9.11499 10.1758 8.98861 10.2002 8.86672C10.2245 8.74483 10.2845 8.6329 10.3725 8.54512C10.4605 8.45733 10.5726 8.39763 10.6946 8.37357C10.8165 8.34951 10.9429 8.36218 11.0576 8.40996C11.1724 8.45775 11.2704 8.5385 11.3392 8.64201C11.408 8.74551 11.4446 8.86711 11.4443 8.99141C11.4439 9.15774 11.3775 9.31711 11.2597 9.43457C11.142 9.55203 10.9825 9.61799 10.8161 9.61799Z" fill="rgb(35, 188, 236)" />
                                                <path d="M10.8161 6.86763C11.1631 6.86763 11.4443 6.58639 11.4443 6.23948C11.4443 5.89256 11.1631 5.61133 10.8161 5.61133C10.4692 5.61133 10.188 5.89256 10.188 6.23948C10.188 6.58639 10.4692 6.86763 10.8161 6.86763Z" fill="rgb(35, 188, 236)" />
                                                <path d="M12.1913 8.24269C12.5382 8.24269 12.8194 7.96146 12.8194 7.61454C12.8194 7.26762 12.5382 6.98639 12.1913 6.98639C11.8443 6.98639 11.5631 7.26762 11.5631 7.61454C11.5631 7.96146 11.8443 8.24269 12.1913 8.24269Z" fill="rgb(35, 188, 236)" />
                                                <path d="M5.31189 6.11108V9.11394" stroke="rgb(35, 188, 236)" stroke-width="1.00189" stroke-linecap="round" stroke-linejoin="round" />
                                                <path d="M6.81463 7.61176H3.81177" stroke="rgb(35, 188, 236)" stroke-width="1.00189" stroke-linecap="round" stroke-linejoin="round" />
                                            </g>
                                            <defs>
                                                <clipPath id="clip0_5_831">
                                                    <rect width="16.0035" height="16.0035" fill="white" transform="translate(0.310913 0.610229)" />
                                                </clipPath>
                                            </defs>
                                        </svg>