<?xml version="1.0" encoding="utf-8"?>
<svg width="17" height="17" viewBox="0 0 17 17" fill="none" xmlns="http://www.w3.org/2000/svg">
    <g>
        <path d="M12.7432 5.75582C12.6516 7.02721 11.7084 8.00663 10.6799 8.00663C9.65144 8.00663 8.70673 7.02752 8.6167 5.75582C8.52291 4.43315 9.44106 3.505 10.6799 3.505C11.9188 3.505 12.837 4.45722 12.7432 5.75582Z" stroke="black" stroke-width="1.00189" stroke-linecap="round" stroke-linejoin="round" />
        <path d="M10.6793 10.0067C8.64232 10.0067 6.68345 11.0185 6.19272 12.9889C6.12771 13.2496 6.29118 13.5075 6.55905 13.5075H14.7999C15.0678 13.5075 15.2303 13.2496 15.1662 12.9889C14.6755 10.9869 12.7166 10.0067 10.6793 10.0067Z" stroke="black" stroke-width="1.00189" stroke-miterlimit="10" />
        <path d="M6.42937 6.31713C6.3562 7.33276 5.59385 8.13264 4.77209 8.13264C3.95033 8.13264 3.18672 7.33308 3.1148 6.31713C3.04007 5.26053 3.7821 4.50537 4.77209 4.50537C5.76208 4.50537 6.50411 5.27992 6.42937 6.31713Z" stroke="black" stroke-width="1.00189" stroke-linecap="round" stroke-linejoin="round" />
        <path d="M6.61604 10.0688C6.05177 9.81023 5.4303 9.71082 4.77162 9.71082C3.14604 9.71082 1.57985 10.5189 1.18752 12.0929C1.13594 12.3011 1.26661 12.5071 1.48043 12.5071H4.99045" stroke="black" stroke-width="1.00189" stroke-miterlimit="10" stroke-linecap="round" />
    </g>
    <defs>
        <clipPath>
            <rect width="16.0035" height="16.0035" fill="white" transform="translate(0.176514 0.504028)" />
        </clipPath>
    </defs>
</svg>